<mxfile host="app.diagrams.net" modified="2023-11-28T08:10:38.832Z" agent="Mozilla/5.0 (Windows NT 10.0; Win64; x64) AppleWebKit/537.36 (KHTML, like Gecko) Chrome/119.0.0.0 Safari/537.36" etag="lkSW1_1CPX5BE3zbZF6K" version="21.6.8" type="device">
  <diagram name="Page-1" id="r3PX6qRjG6jI2-oFcuKF">
    <mxGraphModel dx="794" dy="470" grid="1" gridSize="10" guides="1" tooltips="1" connect="1" arrows="1" fold="1" page="1" pageScale="1" pageWidth="850" pageHeight="1100" math="0" shadow="0">
      <root>
        <mxCell id="0" />
        <mxCell id="1" parent="0" />
        <mxCell id="x6eyhwx8ocG6MNjuQ-eu-3" value="" style="edgeStyle=orthogonalEdgeStyle;rounded=0;orthogonalLoop=1;jettySize=auto;html=1;strokeColor=#fdfcfc;fontSize=14;" edge="1" parent="1" source="x6eyhwx8ocG6MNjuQ-eu-1" target="x6eyhwx8ocG6MNjuQ-eu-2">
          <mxGeometry relative="1" as="geometry" />
        </mxCell>
        <mxCell id="x6eyhwx8ocG6MNjuQ-eu-1" value="User Input" style="rounded=1;whiteSpace=wrap;html=1;fontStyle=1;fillColor=#fa6800;fontColor=#FFFFFF;strokeColor=#C73500;fontSize=14;" vertex="1" parent="1">
          <mxGeometry x="160" y="80" width="143" height="60" as="geometry" />
        </mxCell>
        <mxCell id="x6eyhwx8ocG6MNjuQ-eu-5" style="edgeStyle=orthogonalEdgeStyle;rounded=0;orthogonalLoop=1;jettySize=auto;html=1;entryX=0.5;entryY=0;entryDx=0;entryDy=0;fontSize=14;strokeColor=#fdfcfc;" edge="1" parent="1" source="x6eyhwx8ocG6MNjuQ-eu-2" target="x6eyhwx8ocG6MNjuQ-eu-4">
          <mxGeometry relative="1" as="geometry" />
        </mxCell>
        <mxCell id="x6eyhwx8ocG6MNjuQ-eu-2" value="NLP" style="whiteSpace=wrap;html=1;rounded=1;fillColor=#fa6800;fontColor=#f8f7f7;strokeColor=#C73500;fontStyle=1;fontSize=14;" vertex="1" parent="1">
          <mxGeometry x="160" y="170" width="143" height="60" as="geometry" />
        </mxCell>
        <mxCell id="x6eyhwx8ocG6MNjuQ-eu-7" value="" style="edgeStyle=orthogonalEdgeStyle;rounded=0;orthogonalLoop=1;jettySize=auto;html=1;fontSize=14;strokeColor=#fdfcfc;" edge="1" parent="1" source="x6eyhwx8ocG6MNjuQ-eu-4" target="x6eyhwx8ocG6MNjuQ-eu-6">
          <mxGeometry relative="1" as="geometry" />
        </mxCell>
        <mxCell id="x6eyhwx8ocG6MNjuQ-eu-4" value="Intent Recognition" style="whiteSpace=wrap;html=1;rounded=1;fillColor=#fa6800;fontColor=#f8f7f7;strokeColor=#C73500;fontStyle=1;fontSize=14;" vertex="1" parent="1">
          <mxGeometry x="160" y="260" width="143" height="60" as="geometry" />
        </mxCell>
        <mxCell id="x6eyhwx8ocG6MNjuQ-eu-18" style="edgeStyle=orthogonalEdgeStyle;rounded=0;orthogonalLoop=1;jettySize=auto;html=1;entryX=0.5;entryY=0;entryDx=0;entryDy=0;fontColor=#fffafa;strokeColor=#FFFFFF;" edge="1" parent="1" source="x6eyhwx8ocG6MNjuQ-eu-6" target="x6eyhwx8ocG6MNjuQ-eu-8">
          <mxGeometry relative="1" as="geometry">
            <Array as="points">
              <mxPoint x="320" y="380" />
              <mxPoint x="320" y="60" />
              <mxPoint x="447" y="60" />
            </Array>
          </mxGeometry>
        </mxCell>
        <mxCell id="x6eyhwx8ocG6MNjuQ-eu-6" value="Context Handling" style="whiteSpace=wrap;html=1;rounded=1;fillColor=#fa6800;fontColor=#f8f7f7;strokeColor=#C73500;fontStyle=1;fontSize=14;" vertex="1" parent="1">
          <mxGeometry x="160" y="350" width="143" height="60" as="geometry" />
        </mxCell>
        <mxCell id="x6eyhwx8ocG6MNjuQ-eu-10" value="" style="edgeStyle=orthogonalEdgeStyle;rounded=0;orthogonalLoop=1;jettySize=auto;html=1;fontSize=14;strokeColor=#fdfcfc;" edge="1" parent="1" source="x6eyhwx8ocG6MNjuQ-eu-8" target="x6eyhwx8ocG6MNjuQ-eu-9">
          <mxGeometry relative="1" as="geometry" />
        </mxCell>
        <mxCell id="x6eyhwx8ocG6MNjuQ-eu-8" value="Data Retrieval &amp;amp; Processing" style="rounded=1;whiteSpace=wrap;html=1;fontStyle=1;fillColor=#fa6800;fontColor=#FFFFFF;strokeColor=#C73500;fontSize=14;" vertex="1" parent="1">
          <mxGeometry x="364" y="80" width="166" height="60" as="geometry" />
        </mxCell>
        <mxCell id="x6eyhwx8ocG6MNjuQ-eu-12" value="" style="edgeStyle=orthogonalEdgeStyle;rounded=0;orthogonalLoop=1;jettySize=auto;html=1;fontSize=14;strokeColor=#fdfcfc;" edge="1" parent="1" source="x6eyhwx8ocG6MNjuQ-eu-9" target="x6eyhwx8ocG6MNjuQ-eu-11">
          <mxGeometry relative="1" as="geometry" />
        </mxCell>
        <mxCell id="x6eyhwx8ocG6MNjuQ-eu-9" value="Response Generation" style="rounded=1;whiteSpace=wrap;html=1;fontStyle=1;fillColor=#fa6800;fontColor=#FFFFFF;strokeColor=#C73500;fontSize=14;" vertex="1" parent="1">
          <mxGeometry x="364" y="170" width="166" height="60" as="geometry" />
        </mxCell>
        <mxCell id="x6eyhwx8ocG6MNjuQ-eu-14" value="" style="edgeStyle=orthogonalEdgeStyle;rounded=0;orthogonalLoop=1;jettySize=auto;html=1;fontSize=14;strokeColor=#fdfcfc;" edge="1" parent="1" source="x6eyhwx8ocG6MNjuQ-eu-11" target="x6eyhwx8ocG6MNjuQ-eu-13">
          <mxGeometry relative="1" as="geometry" />
        </mxCell>
        <mxCell id="x6eyhwx8ocG6MNjuQ-eu-11" value="User Output" style="rounded=1;whiteSpace=wrap;html=1;fontStyle=1;fillColor=#fa6800;fontColor=#FFFFFF;strokeColor=#C73500;fontSize=14;" vertex="1" parent="1">
          <mxGeometry x="364" y="260" width="166" height="60" as="geometry" />
        </mxCell>
        <mxCell id="x6eyhwx8ocG6MNjuQ-eu-19" style="edgeStyle=orthogonalEdgeStyle;rounded=0;orthogonalLoop=1;jettySize=auto;html=1;entryX=0.4;entryY=0.011;entryDx=0;entryDy=0;entryPerimeter=0;fontColor=#fffafa;strokeColor=#f8f7f7;" edge="1" parent="1" source="x6eyhwx8ocG6MNjuQ-eu-13" target="x6eyhwx8ocG6MNjuQ-eu-15">
          <mxGeometry relative="1" as="geometry">
            <Array as="points">
              <mxPoint x="550" y="380" />
              <mxPoint x="550" y="60" />
              <mxPoint x="647" y="60" />
            </Array>
          </mxGeometry>
        </mxCell>
        <mxCell id="x6eyhwx8ocG6MNjuQ-eu-13" value="Learning &amp;amp; Adaptation" style="rounded=1;whiteSpace=wrap;html=1;fontStyle=1;fillColor=#fa6800;fontColor=#FFFFFF;strokeColor=#C73500;fontSize=14;" vertex="1" parent="1">
          <mxGeometry x="364" y="350" width="166" height="60" as="geometry" />
        </mxCell>
        <mxCell id="x6eyhwx8ocG6MNjuQ-eu-17" value="" style="edgeStyle=orthogonalEdgeStyle;rounded=0;orthogonalLoop=1;jettySize=auto;html=1;fontSize=14;strokeColor=#fdfcfc;" edge="1" parent="1" source="x6eyhwx8ocG6MNjuQ-eu-15" target="x6eyhwx8ocG6MNjuQ-eu-16">
          <mxGeometry relative="1" as="geometry" />
        </mxCell>
        <mxCell id="x6eyhwx8ocG6MNjuQ-eu-15" value="Error Handling" style="rounded=1;whiteSpace=wrap;html=1;fontStyle=1;fillColor=#fa6800;fontColor=#FFFFFF;strokeColor=#C73500;fontSize=14;" vertex="1" parent="1">
          <mxGeometry x="599" y="80" width="120" height="60" as="geometry" />
        </mxCell>
        <mxCell id="x6eyhwx8ocG6MNjuQ-eu-16" value="Integration with other systems" style="rounded=1;whiteSpace=wrap;html=1;fontStyle=1;fillColor=#fa6800;fontColor=#FFFFFF;strokeColor=#C73500;fontSize=14;" vertex="1" parent="1">
          <mxGeometry x="599" y="170" width="120" height="60" as="geometry" />
        </mxCell>
        <mxCell id="x6eyhwx8ocG6MNjuQ-eu-20" value="&lt;b&gt;&lt;font style=&quot;font-size: 16px;&quot;&gt;#1&lt;/font&gt;&lt;/b&gt;" style="text;html=1;strokeColor=none;fillColor=none;align=center;verticalAlign=middle;whiteSpace=wrap;rounded=0;fontColor=#fdfcfc;" vertex="1" parent="1">
          <mxGeometry x="123" y="95" width="40" height="30" as="geometry" />
        </mxCell>
        <mxCell id="x6eyhwx8ocG6MNjuQ-eu-21" value="&lt;b&gt;&lt;font style=&quot;font-size: 16px;&quot;&gt;#2&lt;/font&gt;&lt;/b&gt;" style="text;html=1;strokeColor=none;fillColor=none;align=center;verticalAlign=middle;whiteSpace=wrap;rounded=0;fontColor=#fdfcfc;" vertex="1" parent="1">
          <mxGeometry x="123" y="185" width="40" height="30" as="geometry" />
        </mxCell>
        <mxCell id="x6eyhwx8ocG6MNjuQ-eu-22" value="&lt;b&gt;&lt;font style=&quot;font-size: 16px;&quot;&gt;#3&lt;/font&gt;&lt;/b&gt;" style="text;html=1;strokeColor=none;fillColor=none;align=center;verticalAlign=middle;whiteSpace=wrap;rounded=0;fontColor=#fdfcfc;" vertex="1" parent="1">
          <mxGeometry x="123" y="275" width="40" height="30" as="geometry" />
        </mxCell>
        <mxCell id="x6eyhwx8ocG6MNjuQ-eu-23" value="&lt;b&gt;&lt;font style=&quot;font-size: 16px;&quot;&gt;#4&lt;/font&gt;&lt;/b&gt;" style="text;html=1;strokeColor=none;fillColor=none;align=center;verticalAlign=middle;whiteSpace=wrap;rounded=0;fontColor=#fdfcfc;" vertex="1" parent="1">
          <mxGeometry x="123" y="365" width="40" height="30" as="geometry" />
        </mxCell>
        <mxCell id="x6eyhwx8ocG6MNjuQ-eu-24" value="&lt;b&gt;&lt;font style=&quot;font-size: 16px;&quot;&gt;#5&lt;/font&gt;&lt;/b&gt;" style="text;html=1;strokeColor=none;fillColor=none;align=center;verticalAlign=middle;whiteSpace=wrap;rounded=0;fontColor=#fdfcfc;" vertex="1" parent="1">
          <mxGeometry x="329" y="95" width="40" height="30" as="geometry" />
        </mxCell>
        <mxCell id="x6eyhwx8ocG6MNjuQ-eu-25" value="&lt;b&gt;&lt;font style=&quot;font-size: 16px;&quot;&gt;#6&lt;/font&gt;&lt;/b&gt;" style="text;html=1;strokeColor=none;fillColor=none;align=center;verticalAlign=middle;whiteSpace=wrap;rounded=0;fontColor=#fdfcfc;" vertex="1" parent="1">
          <mxGeometry x="329" y="185" width="40" height="30" as="geometry" />
        </mxCell>
        <mxCell id="x6eyhwx8ocG6MNjuQ-eu-26" value="&lt;b&gt;&lt;font style=&quot;font-size: 16px;&quot;&gt;#7&lt;/font&gt;&lt;/b&gt;" style="text;html=1;strokeColor=none;fillColor=none;align=center;verticalAlign=middle;whiteSpace=wrap;rounded=0;fontColor=#fdfcfc;" vertex="1" parent="1">
          <mxGeometry x="329" y="275" width="40" height="30" as="geometry" />
        </mxCell>
        <mxCell id="x6eyhwx8ocG6MNjuQ-eu-27" value="&lt;b&gt;&lt;font style=&quot;font-size: 16px;&quot;&gt;#8&lt;/font&gt;&lt;/b&gt;" style="text;html=1;strokeColor=none;fillColor=none;align=center;verticalAlign=middle;whiteSpace=wrap;rounded=0;fontColor=#fdfcfc;" vertex="1" parent="1">
          <mxGeometry x="329" y="365" width="40" height="30" as="geometry" />
        </mxCell>
        <mxCell id="x6eyhwx8ocG6MNjuQ-eu-28" value="&lt;b&gt;&lt;font style=&quot;font-size: 16px;&quot;&gt;#9&lt;/font&gt;&lt;/b&gt;" style="text;html=1;strokeColor=none;fillColor=none;align=center;verticalAlign=middle;whiteSpace=wrap;rounded=0;fontColor=#fdfcfc;" vertex="1" parent="1">
          <mxGeometry x="560" y="95" width="40" height="30" as="geometry" />
        </mxCell>
        <mxCell id="x6eyhwx8ocG6MNjuQ-eu-29" value="&lt;b&gt;&lt;font style=&quot;font-size: 16px;&quot;&gt;#10&lt;/font&gt;&lt;/b&gt;" style="text;html=1;strokeColor=none;fillColor=none;align=center;verticalAlign=middle;whiteSpace=wrap;rounded=0;fontColor=#fdfcfc;" vertex="1" parent="1">
          <mxGeometry x="560" y="185" width="40" height="30" as="geometry" />
        </mxCell>
      </root>
    </mxGraphModel>
  </diagram>
</mxfile>
